<svg xmlns="http://www.w3.org/2000/svg" viewBox="0 0 64 64">
  <g fill="none" stroke="#000" stroke-width="1.75" stroke-linecap="round" stroke-linejoin="round">
    <!-- laptop -->
    <rect x="8" y="18" width="32" height="24" rx="2" ry="2"/>
    <path d="M6 42h36c1.5 0 2.5 1.2 2.5 2.5v1.5H3.5v-1.5C3.5 43.2 4.5 42 6 42z"/>
    <!-- persona -->
    <circle cx="24" cy="26" r="3.5"/>
    <path d="M18.5 34c1.4-2.5 3.1-3.8 5.5-3.8s4.1 1.3 5.5 3.8"/>
    <!-- lámpara de mesa -->
    <rect x="40" y="30" width="8" height="8" rx="1" ry="1"/>
    <line x1="44" y1="38" x2="44" y2="43"/>
    <line x1="41" y1="43" x2="47" y2="43"/>
    <!-- globo de diálogo con casita -->
    <path d="M34 10h15a4 4 0 0 1 4 4v8a4 4 0 0 1-4 4h-6l-4 4v-4h-5a4 4 0 0 1-4-4v-8a4 4 0 0 1 4-4z"/>
    <path d="M40.5 15.5l4-3 4 3v6.5h-8z"/>
    <rect x="43" y="18" width="3" height="4"/>
  </g>
</svg>
