<svg xmlns="http://www.w3.org/2000/svg" width="24" height="24" fill="#25D366" viewBox="0 0 24 24">
  <path d="M12.004 2c5.514 0 10 4.486 10 10 0 5.516-4.486 10.002-10 10.002-1.748 0-3.396-.457-4.855-1.326l-5.145 1.351 1.371-5.035C2.486 15.383 2 13.736 2 12c0-5.514 4.486-10 10.004-10zm0 1.8c-4.527 0-8.204 3.677-8.204 8.2 0 1.577.445 3.105 1.288 4.436l.201.318-1.002 3.674 3.778-.993.307.182c1.236.729 2.65 1.114 4.084 1.114 4.523 0 8.2-3.677 8.2-8.2 0-4.523-3.677-8.2-8.2-8.2zm4.48 11.728c-.186-.093-1.102-.543-1.272-.605-.17-.062-.294-.093-.418.094-.124.186-.48.605-.59.729-.109.124-.218.14-.404.047-.186-.093-.787-.29-1.5-.926-.555-.495-.929-1.106-1.038-1.292-.109-.186-.012-.286.082-.379.084-.084.186-.218.279-.327.093-.109.124-.186.186-.31.062-.124.031-.233-.015-.326-.046-.093-.418-1.008-.573-1.38-.15-.36-.303-.31-.418-.316l-.356-.006c-.124 0-.326.046-.497.233-.17.186-.652.637-.652 1.552s.668 1.8.761 1.926c.093.124 1.316 2.016 3.192 2.826.447.193.797.309 1.07.396.449.143.857.123 1.18.074.36-.054 1.102-.45 1.258-.884.155-.434.155-.806.109-.884-.046-.078-.17-.124-.356-.217z"/>
</svg>